<?xml version="1.0" standalone="no"?>
<!DOCTYPE svg PUBLIC "-//W3C//DTD SVG 1.1//EN" "http://www.w3.org/Graphics/SVG/1.1/DTD/svg11.dtd" >
<svg xmlns="http://www.w3.org/2000/svg" xmlns:xlink="http://www.w3.org/1999/xlink" version="1.1">
<metadata></metadata>
<defs>
<font id="norwesterregular" horiz-adv-x="1024" >
<font-face units-per-em="2048" ascent="1638" descent="-410" />
<missing-glyph horiz-adv-x="512" />
<glyph horiz-adv-x="0" />
<glyph unicode="&#xd;" horiz-adv-x="681" />
<glyph unicode=" "  horiz-adv-x="512" />
<glyph unicode="&#x09;" horiz-adv-x="512" />
<glyph unicode="&#xa0;" horiz-adv-x="512" />
<glyph unicode="!" horiz-adv-x="483" d="M92 1606q0 32 33 32h223q33 0 33 -32l-14 -1117q0 -33 -33 -32h-195q-33 0 -33 32zM102 41v188q0 41 41 41h187q41 0 41 -41v-188q0 -41 -41 -41h-187q-41 0 -41 41z" />
<glyph unicode="&#x22;" horiz-adv-x="837" d="M102 1409v188q0 41 41 41h187q41 0 41 -41v-200q0 -29 -15 -51l-110 -168q-8 -14 -25 -15h-92q-27 0 -16 25l82 180h-52q-41 0 -41 41zM467 1409v188q0 41 41 41h186q41 0 41 -41v-200q0 -29 -14 -51l-111 -168q-8 -14 -24 -15h-92q-27 0 -17 25l82 180h-51q-41 0 -41 41 z" />
<glyph unicode="#" horiz-adv-x="1916" d="M106 504l52 141q12 33 47 33h280l117 303h-311q-23 0 -32 13.5t-1 33.5l51 141q12 33 47 33h330l154 404q12 33 47 32h190q49 0 33 -47l-147 -389h278l154 404q12 33 47 32h190q49 0 33 -47l-147 -389h260q23 0 32 -13t0 -34l-51 -141q-12 -33 -47 -33h-280l-115 -303 h309q23 0 32 -13.5t1 -33.5l-51 -142q-12 -33 -47 -32h-328l-162 -424q-12 -33 -47 -33l-193 -2q-49 0 -32 47l157 412h-278l-162 -424q-12 -33 -47 -33l-193 -2q-49 0 -32 47l157 412h-262q-23 0 -32 13t-1 34zM762 678h278l117 303h-280z" />
<glyph unicode="$" d="M102 295v215q0 33 33 33h213q33 0 33 -33v-158q0 -82 82 -82h98q82 0 82 82v273l-485 159q-55 18 -56 76v483q0 139 72 215t205 80v121q0 33 33 33h198q33 0 33 -33v-121q279 -10 279 -295v-217q0 -32 -33 -32h-213q-33 0 -33 32v160q0 82 -82 82h-98q-82 0 -82 -82v-282 l487 -160q53 -23 54 -76v-473q0 -285 -279 -295v-121q0 -33 -33 -33h-198q-33 0 -33 33v121q-133 4 -205 80t-72 215z" />
<glyph unicode="%" horiz-adv-x="1779" d="M164 1184q0 135 95 231t230 96q131 0 225.5 -96t94.5 -231q0 -131 -93 -225.5t-227 -94.5q-137 0 -231 93.5t-94 226.5zM295 12.5q-10 12.5 2 34.5l944 1423q20 33 47 33h191q25 0 35 -12t-3 -35l-942 -1423q-20 -33 -47 -33h-192q-25 0 -35 12.5zM375 1184 q0 -45 33.5 -78t80.5 -33q43 0 77 33t34 78q0 47 -34 80.5t-77 33.5q-47 0 -80.5 -33.5t-33.5 -80.5zM971 289q0 135 95 231t230 96q131 0 225.5 -96t94.5 -231q0 -133 -93 -226.5t-227 -93.5q-137 0 -231 93.5t-94 226.5zM1182 289q0 -45 33.5 -78t80.5 -33q43 0 77 33 t34 78q0 47 -34 80.5t-77 33.5q-47 0 -80.5 -33.5t-33.5 -80.5z" />
<glyph unicode="&#x26;" horiz-adv-x="1153" d="M102 295v397q0 55 37 95t92 51v4q-55 10 -92 50t-37 95v356q0 143 76 219t221 76h371q41 0 41 -41v-188q0 -41 -41 -41h-313q-82 0 -82 -82v-231q0 -80 82 -80h190v82q0 41 41 41h195q41 0 41 -41v-82h86q41 0 41 -41v-189q0 -41 -41 -40h-86v-664q0 -41 -41 -41h-484 q-145 0 -221 76t-76 219zM375 352q0 -82 82 -82h190v435h-190q-82 0 -82 -82v-271z" />
<glyph unicode="'" horiz-adv-x="473" d="M102 1409v188q0 41 41 41h187q41 0 41 -41v-200q0 -29 -15 -51l-110 -168q-8 -14 -25 -15h-92q-27 0 -16 25l82 180h-52q-41 0 -41 41z" />
<glyph unicode="(" horiz-adv-x="626" d="M102 739.5q0 448.5 166 866.5q12 32 47 32h172q49 0 33 -47q-160 -410 -160 -852t160 -852q16 -47 -33 -47h-172q-35 0 -47 33q-166 418 -166 866.5z" />
<glyph unicode=")" horiz-adv-x="626" d="M106 -113q160 410 160 852.5t-160 851.5q-16 47 33 47h172q35 0 47 -32q166 -418 166 -866.5t-166 -866.5q-12 -33 -47 -33h-172q-49 0 -33 47z" />
<glyph unicode="+" horiz-adv-x="1425" d="M102 705v192q0 41 41 41h432v432q0 41 41 41h193q41 0 41 -41v-432h432q41 0 41 -41v-192q0 -41 -41 -41h-432v-433q0 -41 -41 -41h-193q-41 0 -41 41v433h-432q-41 0 -41 41z" />
<glyph unicode="," horiz-adv-x="473" d="M102 41v188q0 41 41 41h187q41 0 41 -41v-200q0 -29 -15 -52l-110 -167q-8 -14 -25 -15h-92q-27 0 -16 25l82 180h-52q-41 0 -41 41z" />
<glyph unicode="-" horiz-adv-x="610" d="M102 643v188q0 41 41 41h324q41 0 41 -41v-188q0 -41 -41 -41h-324q-41 0 -41 41z" />
<glyph unicode="." horiz-adv-x="473" d="M102 41v188q0 41 41 41h187q41 0 41 -41v-188q0 -41 -41 -41h-187q-41 0 -41 41z" />
<glyph unicode="/" horiz-adv-x="1077" d="M66 -115l657 1721q12 32 47 32h191q49 0 32 -47l-655 -1720q-12 -33 -47 -33h-193q-49 0 -32 47z" />
<glyph unicode="0" d="M102 295v1048q0 143 76 219t219 76h230q143 0 219 -75.5t76 -219.5v-1048q0 -143 -76 -219t-219 -76h-230q-143 0 -219 76t-76 219zM375 346q0 -82 82 -82h118q82 0 82 82v946q0 82 -82 82h-118q-82 0 -82 -82v-946z" />
<glyph unicode="1" horiz-adv-x="673" d="M102 1348v196q0 41 39 43l377 51q33 0 33 -32v-1573q0 -33 -33 -33h-213q-33 0 -33 33v1294l-127 -16q-43 -6 -43 37z" />
<glyph unicode="2" d="M102 41v604q0 47 54 76l487 262v303q0 82 -82 82h-98q-82 0 -82 -82v-160q0 -33 -33 -32h-213q-33 0 -33 32v217q0 143 76 219t219 76h230q143 0 219 -75.5t76 -219.5v-483q-1 -47 -56 -76l-456 -245q-29 -16 -29 -50v-178q0 -41 41 -41h221v84q0 41 41 41h197 q41 0 41 -41v-313q0 -41 -41 -41h-738q-41 0 -41 41z" />
<glyph unicode="3" horiz-adv-x="1026" d="M102 287v67q0 41 41 41h197q41 0 41 -41v-84h229q41 0 41 41v291q0 82 -82 82h-241q-41 0 -41 41v188q0 41 41 41h241q82 0 82 80v293q0 41 -41 41h-229v-84q0 -41 -41 -41h-197q-41 0 -41 41v84q0 131 74 200.5t213 69.5h238q145 0 221 -76t76 -219v-376 q0 -55 -37 -95.5t-92 -50.5v-4q55 -10 92 -50t37 -95v-377q0 -143 -76 -219t-221 -76h-238q-139 0 -213 73.5t-74 213.5z" />
<glyph unicode="4" horiz-adv-x="1218" d="M102 528v183q0 27 15 49l526 852q14 27 49 26h215q25 0 33 -14t-6 -35l-514 -852h311v246q0 41 41 41h178q41 0 41 -41v-242h84q41 0 41 -41v-176q0 -41 -41 -41h-84v-442q0 -41 -41 -41h-178q-41 0 -41 41v446h-588q-41 0 -41 41z" />
<glyph unicode="5" d="M102 287v65q0 41 41 41h197q41 0 41 -41v-82h223q41 0 41 41v375l-487 154q-35 12 -35 45v712q0 41 41 41h696q41 0 41 -41v-188q0 -41 -41 -41h-461v-321l488 -154q35 -12 35 -45v-561q0 -139 -74 -213t-213 -74h-246q-139 0 -213 73.5t-74 213.5z" />
<glyph unicode="6" d="M102 287v526q0 49 21 102l291 693q12 31 47 30h213q51 0 31 -47l-248 -585h178q139 0 213 -74t74 -213v-432q0 -139 -74 -213t-213 -74h-246q-139 0 -213 73.5t-74 213.5zM373 352q0 -82 82 -82h114q82 0 82 82v301q0 82 -82 82h-114q-82 0 -82 -82v-301z" />
<glyph unicode="7" horiz-adv-x="1071" d="M102 1399v205q0 30 33 34h840q49 0 31 -49l-598 -1554q-12 -33 -48 -33l-213 -2q-49 0 -32 47l506 1319h-486q-33 0 -33 33z" />
<glyph unicode="8" horiz-adv-x="1026" d="M102 295v377q0 55 37 95t92 50v4q-55 10 -92 50t-37 96v376q0 143 76 219t221 76h228q145 0 221 -76t76 -219v-376q0 -55 -37 -95.5t-92 -50.5v-4q55 -10 92 -50t37 -95v-377q0 -143 -76 -219t-221 -76h-228q-145 0 -221 76t-76 219zM375 352q0 -82 82 -82h112 q82 0 82 82v250q0 82 -82 82h-112q-82 0 -82 -82v-250zM375 1034q0 -80 82 -80h112q82 0 82 80v252q0 82 -82 82h-112q-82 0 -82 -82v-252z" />
<glyph unicode="9" d="M102 920v432q0 139 74 212.5t213 73.5h246q139 0 213 -73.5t74 -212.5v-527q0 -49 -21 -102l-291 -692q-12 -31 -47 -31h-213q-51 0 -31 47l248 586h-178q-139 0 -213 73.5t-74 213.5zM373 985q0 -82 82 -82h114q82 0 82 82v301q0 82 -82 82h-114q-82 0 -82 -82v-301z " />
<glyph unicode=":" horiz-adv-x="473" d="M102 41v188q0 41 41 41h187q41 0 41 -41v-188q0 -41 -41 -41h-187q-41 0 -41 41zM102 725v188q0 41 41 41h187q41 0 41 -41v-188q0 -41 -41 -41h-187q-41 0 -41 41z" />
<glyph unicode=";" horiz-adv-x="473" d="M102 41v188q0 41 41 41h187q41 0 41 -41v-200q0 -29 -15 -52l-110 -167q-8 -14 -25 -15h-92q-27 0 -16 25l82 180h-52q-41 0 -41 41zM102 727v188q0 41 41 41h187q41 0 41 -41v-188q0 -41 -41 -41h-187q-41 0 -41 41z" />
<glyph unicode="=" horiz-adv-x="1427" d="M102 911v193q0 41 41 41h1139q41 0 41 -41v-193q0 -41 -41 -41h-1139q-41 0 -41 41zM104 467v192q0 41 41 41h1139q41 0 41 -41v-192q0 -41 -41 -41h-1139q-41 0 -41 41z" />
<glyph unicode="?" d="M102 1126v217q0 143 76 219t219 76h230q143 0 219 -75.5t76 -219.5v-403q0 -31 -23 -51l-260 -250q-20 -20 -21 -51v-90q0 -41 -40 -41h-193q-41 0 -41 41v180q0 29 21 49l278 277v282q0 82 -82 82h-98q-82 0 -82 -82v-160q0 -33 -33 -32h-213q-33 0 -33 32zM344 41v188 q0 41 41 41h193q41 0 40 -41v-188q0 -41 -40 -41h-193q-41 0 -41 41z" />
<glyph unicode="@" horiz-adv-x="1515" d="M102 213v1047q0 145 76 220.5t219 75.5h721q143 0 219 -75.5t76 -218.5v-924q0 -33 -33 -33h-204q-33 0 -33 33v31l-371 -62q-143 -6 -219 72t-76 223v279q0 150 77 231.5t218 65.5l371 -60v86q0 82 -82 82h-606q-82 0 -82 -84v-932q0 -82 82 -82h426q41 0 41 -41v-167 q0 -39 -41 -43l-484 -19q-143 -6 -219 72t-76 223zM727 659q0 -82 82 -81l334 45v239l-334 45q-82 0 -82 -84v-164z" />
<glyph unicode="A" horiz-adv-x="1200" d="M84 35l340 1575q6 29 35 28h284q29 0 35 -28l340 -1575q7 -35 -28 -35h-218q-27 0 -32 29l-58 299h-364l-56 -299q-6 -29 -32 -29h-219q-37 0 -27 35zM469 565h262l-131 715z" />
<glyph unicode="B" horiz-adv-x="1026" d="M102 33v1573q0 33 33 32h492q145 0 221 -76t76 -219v-376q0 -55 -37 -95.5t-92 -50.5v-4q55 -10 92 -50t37 -95v-377q0 -143 -76 -219t-221 -76h-492q-33 0 -33 33zM383 270h186q82 0 82 82v250q0 82 -82 82h-186v-414zM383 954h186q82 0 82 80v252q0 82 -82 82h-186 v-414z" />
<glyph unicode="C" horiz-adv-x="1026" d="M102 295v1048q0 143 76 219t221 76h230q143 0 219 -76t76 -219v-221q0 -33 -33 -32h-205q-33 0 -33 32v164q0 82 -82 82h-106q-82 0 -82 -82v-934q0 -82 82 -82h106q82 0 82 82v164q0 33 33 33h205q33 0 33 -33v-221q0 -143 -76 -219t-219 -76h-230q-145 0 -221 76 t-76 219z" />
<glyph unicode="D" d="M102 33v1573q0 33 33 32h492q143 0 219 -75.5t76 -221.5v-1046q0 -143 -76 -219t-219 -76h-492q-33 0 -33 33zM381 270h188q82 0 82 82v932q0 84 -82 84h-188v-1098z" />
<glyph unicode="E" horiz-adv-x="1021" d="M102 33v1573q0 33 31 32h754q33 1 33 -32v-205q0 -35 -33 -35h-512v-410h391q33 0 33 -34v-203q0 -35 -33 -35h-391v-414h512q33 0 33 -32v-205q0 -33 -33 -33h-754q-31 0 -31 33z" />
<glyph unicode="F" d="M102 33v1573q0 33 33 32h754q33 1 33 -32v-205q0 -33 -33 -33h-508v-412h385q33 0 33 -32v-205q0 -33 -33 -33h-385v-653q0 -33 -33 -33h-213q-33 0 -33 33z" />
<glyph unicode="G" horiz-adv-x="1064" d="M102 295v1048q0 143 76 219t219 76h271q143 0 219 -75.5t76 -219.5v-213q0 -33 -33 -32h-205q-33 0 -33 32v156q0 82 -82 82h-147q-82 0 -82 -82v-934q0 -82 82 -82h147q82 0 82 82v275h-106q-33 0 -33 32v205q0 33 33 33h344q33 0 33 -33v-569q0 -143 -76 -219t-219 -76 h-271q-143 0 -219 76t-76 219z" />
<glyph unicode="H" d="M102 33v1573q0 33 35 32h211q33 0 33 -32v-652h262v652q0 33 33 32h211q35 0 35 -32v-1573q0 -33 -35 -33h-211q-33 0 -33 33v651h-262v-651q0 -33 -33 -33h-211q-35 0 -35 33z" />
<glyph unicode="I" horiz-adv-x="483" d="M102 33v1573q0 32 33 32h213q33 0 33 -32v-1573q0 -33 -33 -33h-213q-33 0 -33 33z" />
<glyph unicode="J" d="M102 295v213q0 33 33 33h205q33 0 33 -33v-156q0 -82 82 -82h106q82 0 82 82v1254q0 33 33 32h213q33 0 33 -32v-1311q0 -143 -76 -219t-219 -76h-230q-143 0 -219 76t-76 219z" />
<glyph unicode="K" horiz-adv-x="1097" d="M102 41v1556q0 41 41 41h197q41 0 41 -41v-634l315 645q16 31 47 30h215q23 0 31 -14t-2 -35l-348 -715l371 -827q10 -20 2 -33.5t-33 -13.5h-217q-35 0 -47 31l-258 608l-76 -145v-453q0 -41 -41 -41h-197q-41 0 -41 41z" />
<glyph unicode="L" horiz-adv-x="1003" d="M102 33q0 -33 33 -33h733q33 0 33 33v205q0 33 -33 32h-487v1336q0 33 -33 32h-213q-33 0 -33 -32v-1573z" />
<glyph unicode="M" horiz-adv-x="1372" d="M102 41v1556q0 41 41 41h271q37 0 45 -36l227 -1020l227 1020q8 36 45 36h271q41 0 41 -41v-1556q0 -41 -41 -41h-191q-41 0 -41 41v922h-14l-203 -926q-10 -37 -45 -37h-100q-37 0 -45 37l-203 926h-14v-922q0 -41 -41 -41h-189q-41 0 -41 41z" />
<glyph unicode="N" horiz-adv-x="1079" d="M102 33v1573q0 33 33 32h203q29 0 37 -26l311 -871h12v865q0 32 33 32h213q33 0 33 -32v-1573q0 -33 -33 -33h-203q-29 0 -36 27l-314 874h-10v-868q0 -33 -33 -33h-213q-33 0 -33 33z" />
<glyph unicode="O" d="M102 295v1048q0 143 76 219t219 76h230q143 0 219 -75.5t76 -219.5v-1048q0 -143 -76 -219t-219 -76h-230q-143 0 -219 76t-76 219zM375 346q0 -82 82 -82h118q82 0 82 82v946q0 82 -82 82h-118q-82 0 -82 -82v-946z" />
<glyph unicode="P" d="M102 33v1573q0 33 33 32h492q143 0 219 -75.5t76 -219.5v-499q0 -143 -76 -219t-219 -76h-246v-516q0 -33 -33 -33h-213q-33 0 -33 33zM381 819h180q82 0 82 82v385q0 82 -82 82h-180v-549z" />
<glyph unicode="Q" d="M102 295v1048q0 143 76 219t219 76h230q143 0 219 -76t76 -219v-1048q0 -195 -134 -262l82 -176q8 -16 -1 -26.5t-27 -10.5h-213q-20 0 -35 28l-70 152h-127q-143 0 -219 76t-76 219zM381 352q0 -82 82 -82h106q82 0 82 82v934q0 82 -82 82h-106q-82 0 -82 -82v-934z" />
<glyph unicode="R" horiz-adv-x="1046" d="M102 33v1573q0 33 33 32h514q145 0 220 -76t75 -219v-499q0 -205 -149 -271l141 -536q10 -37 -29 -37h-213q-29 0 -35 29l-137 520h-141v-516q0 -33 -33 -33h-213q-33 0 -33 33zM381 819h203q82 0 82 82v385q0 82 -82 82h-203v-549z" />
<glyph unicode="S" d="M102 295v215q0 33 33 33h213q33 0 33 -33v-158q0 -82 82 -82h98q82 0 82 82v273l-485 159q-55 18 -56 76v483q0 143 76 219t219 76h230q143 0 219 -75.5t76 -219.5v-217q0 -33 -33 -32h-213q-33 0 -33 32v160q0 82 -82 82h-98q-82 0 -82 -82v-282l487 -160q53 -23 54 -76 v-473q0 -143 -76 -219t-219 -76h-230q-143 0 -219 76t-76 219z" />
<glyph unicode="T" horiz-adv-x="942" d="M61 1401v205q0 32 33 32h754q33 0 33 -32v-205q0 -33 -33 -33h-238v-1335q0 -33 -32 -33h-213q-33 0 -33 33v1335h-238q-33 0 -33 33z" />
<glyph unicode="U" d="M102 295v1302q0 16 12.5 28.5t28.5 12.5h197q16 0 28.5 -12t12.5 -29v-1245q0 -82 82 -82h106q82 0 82 82v1245q0 16 12.5 28.5t28.5 12.5h189q16 0 28.5 -12t12.5 -29v-1302q0 -143 -76 -219t-219 -76h-230q-143 0 -219 76t-76 219z" />
<glyph unicode="V" horiz-adv-x="1112" d="M63 1593q-2 8 -2 14q0 31 39 31h195q37 0 45 -36l215 -1098l217 1098q10 36 45 36h195q39 0 39 -31q0 -7 -2 -14l-347 -1556q-10 -37 -45 -37h-204q-35 0 -45 37z" />
<glyph unicode="W" horiz-adv-x="1558" d="M102 1595v7q0 36 39 36h195q39 0 43 -39l80 -958h10l203 961q8 37 45 36h123q37 0 45 -36l200 -961h11l84 958q4 39 43 39h194q39 0 39 -36v-7l-176 -1556q-2 -39 -43 -39h-201q-37 0 -45 37l-213 926l-215 -928q-10 -35 -45 -35h-205q-41 0 -43 39z" />
<glyph unicode="X" horiz-adv-x="1101" d="M45 49l324 787l-312 753q-6 14 -6 24q0 25 37 25h205q35 0 47 -28l190 -486l191 486q12 29 47 28h205q37 0 37 -25q0 -10 -6 -24l-314 -753l326 -787q6 -14 6 -24q0 -25 -37 -25h-211q-35 0 -47 29l-197 495l-196 -495q-12 -29 -47 -29h-211q-37 0 -37 25q0 10 6 24z" />
<glyph unicode="Y" horiz-adv-x="1118" d="M45 1591q-8 20 1 33.5t32 13.5h205q35 0 47 -32l229 -588l229 588q13 32 48 32h204q23 0 32 -13t1 -34l-375 -911v-639q0 -41 -41 -41h-196q-41 0 -41 41v639z" />
<glyph unicode="Z" horiz-adv-x="1038" d="M66 49l509 1317h-423q-33 0 -33 33v205q0 30 33 34h770q35 0 35 -25q0 -10 -5 -24l-510 -1319h451q33 0 33 -32v-203q0 -31 -33 -35h-797q-36 0 -36 25q0 10 6 24z" />
<glyph unicode="\" horiz-adv-x="1079" d="M86 1591q-16 47 33 47h190q35 0 47 -32l658 -1721q16 -47 -33 -47h-193q-35 0 -47 33z" />
<glyph unicode="_" horiz-adv-x="1316" d="M0 -86q0 41 41 41h1235q41 0 41 -41v-188q0 -41 -41 -41h-1235q-41 0 -41 41v188z" />
<glyph unicode="a" horiz-adv-x="1161" d="M63 35l340 1370q6 29 35 29h285q29 0 35 -29l340 -1370q10 -35 -29 -35h-199q-27 0 -32 29l-66 258h-385l-63 -258q-6 -29 -33 -29h-201q-37 0 -27 35zM451 524h258l-129 557z" />
<glyph unicode="b" horiz-adv-x="1026" d="M102 33v1368q0 33 33 33h492q145 0 221 -76t76 -219v-277q0 -55 -37 -95t-92 -50v-4q55 -10 92 -50t37 -96v-272q0 -143 -76 -219t-221 -76h-492q-33 0 -33 33zM356 258h226q82 0 82 82v158q0 82 -82 82h-226v-322zM356 850h226q82 0 82 80v164q0 82 -82 82h-226v-326z " />
<glyph unicode="c" horiz-adv-x="1026" d="M102 295v844q0 143 76 219t221 76h230q143 0 219 -76t76 -219v-221q0 -33 -33 -33h-193q-33 0 -32 33v167q0 82 -82 82h-131q-82 0 -82 -82v-743q0 -82 82 -82h131q82 0 82 82v174q0 33 32 33h193q33 0 33 -33v-221q0 -143 -76 -219t-219 -76h-230q-145 0 -221 76 t-76 219z" />
<glyph unicode="d" d="M102 33v1368q0 33 33 33h492q143 0 219 -76t76 -221v-842q0 -143 -76 -219t-219 -76h-492q-33 0 -33 33zM381 270h188q82 0 82 82v727q0 84 -82 84h-188v-893z" />
<glyph unicode="e" horiz-adv-x="1021" d="M102 33v1368q0 33 31 33h754q33 0 33 -33v-205q0 -35 -33 -35h-506v-315h385q33 0 33 -35v-203q0 -35 -33 -35h-385v-303h506q33 0 33 -32v-205q0 -33 -33 -33h-754q-31 0 -31 33z" />
<glyph unicode="f" d="M102 33v1368q0 33 33 33h754q33 0 33 -33v-205q0 -33 -33 -33h-508v-350h385q33 0 33 -33v-205q0 -33 -33 -32h-385v-510q0 -33 -33 -33h-213q-33 0 -33 33z" />
<glyph unicode="g" d="M102 295v844q0 143 76 219t219 76h230q143 0 219 -76t76 -219v-152q0 -33 -33 -33h-193q-33 0 -32 33v100q0 82 -82 82h-131q-82 0 -82 -82v-741q0 -82 82 -82h131q82 0 82 82v178h-107q-33 0 -33 33v205q0 33 33 33h332q33 0 33 -33v-467q0 -143 -76 -219t-219 -76h-230 q-143 0 -219 76t-76 219z" />
<glyph unicode="h" d="M102 33v1368q0 33 35 33h211q33 0 33 -33v-553h262v553q0 33 33 33h211q35 0 35 -33v-1368q0 -33 -35 -33h-211q-33 0 -33 33v545h-262v-545q0 -33 -33 -33h-211q-35 0 -35 33z" />
<glyph unicode="i" horiz-adv-x="483" d="M102 33q0 -33 33 -33h213q33 0 33 33v1368q0 33 -33 33h-213q-33 0 -33 -33v-1368z" />
<glyph unicode="j" d="M102 295v213q0 33 33 33h205q33 0 33 -33v-156q0 -82 82 -82h106q82 0 82 82v1049q0 33 33 33h213q33 0 33 -33v-1106q0 -143 -76 -219t-219 -76h-230q-143 0 -219 76t-76 219z" />
<glyph unicode="k" horiz-adv-x="1097" d="M102 41v1352q0 41 41 41h197q41 0 41 -41v-533l315 543q16 31 47 31h215q23 0 32 -14.5t-3 -35.5l-348 -612l371 -725q10 -20 2 -33.5t-33 -13.5h-217q-33 0 -47 31l-258 506l-76 -146v-350q0 -41 -41 -41h-197q-41 0 -41 41z" />
<glyph unicode="l" horiz-adv-x="921" d="M102 33q0 -33 33 -33h651q33 0 33 33v205q0 33 -33 32h-405v1131q0 33 -33 33h-213q-33 0 -33 -33v-1368z" />
<glyph unicode="m" horiz-adv-x="1372" d="M102 41v1352q0 41 41 41h271q35 0 45 -35l227 -914l227 914q10 35 45 35h271q41 0 41 -41v-1352q0 -41 -41 -41h-191q-41 0 -41 41v805h-14l-192 -811q-10 -35 -46 -35h-120q-35 0 -45 35l-193 811h-14v-805q0 -41 -41 -41h-189q-41 0 -41 41z" />
<glyph unicode="n" horiz-adv-x="1079" d="M102 33v1368q0 33 33 33h162q25 0 37 -27l385 -782v776q0 33 33 33h192q33 0 33 -33v-1368q0 -33 -33 -33h-162q-25 0 -37 27l-385 782v-776q0 -33 -32 -33h-193q-33 0 -33 33z" />
<glyph unicode="o" d="M102 295v844q0 143 76 219t219 76h230q143 0 219 -76t76 -219v-844q0 -143 -76 -219t-219 -76h-230q-143 0 -219 76t-76 219zM369 346q0 -82 82 -82h131q82 0 82 82v741q0 82 -82 82h-131q-82 0 -82 -82v-741z" />
<glyph unicode="p" d="M102 33v1368q0 33 33 33h492q143 0 219 -76t76 -219v-402q0 -291 -295 -295l-258 -2v-409q0 -33 -33 -33l-201 2q-33 0 -33 33zM369 705l204 2q82 0 82 81v299q0 82 -82 82l-204 -2v-462z" />
<glyph unicode="q" d="M102 295v844q0 143 76 219t219 76h230q143 0 219 -76t76 -219v-844q0 -195 -134 -262l82 -176q8 -16 -1 -26.5t-27 -10.5h-213q-20 0 -35 28l-70 152h-127q-143 0 -219 76t-76 219zM369 346q0 -82 82 -82h131q82 0 82 82v741q0 82 -82 82h-131q-82 0 -82 -82v-741z" />
<glyph unicode="r" d="M102 33v1368q0 33 33 33h492q143 0 219 -76t76 -219v-412q0 -178 -115 -250l106 -440q8 -37 -28 -37h-201q-29 0 -35 29l-98 403h-182v-399q0 -33 -33 -33h-201q-33 0 -33 33zM369 696h204q82 0 82 82v309q0 82 -82 82h-204v-473z" />
<glyph unicode="s" d="M102 295v133q0 33 33 33h207q33 0 33 -33v-86q0 -82 82 -82h110q82 0 82 82v207l-491 160q-55 18 -56 75v355q0 143 76 219t219 76h230q143 0 219 -76t76 -219v-135q0 -33 -33 -33h-207q-33 0 -33 33v86q0 81 -80 81h-2h-112q-82 0 -82 -81v-175l495 -159q53 -18 54 -76 v-385q0 -143 -76 -219t-219 -76h-230q-143 0 -219 76t-76 219z" />
<glyph unicode="t" horiz-adv-x="942" d="M61 1196q0 -33 33 -33h238v-1130q0 -33 33 -33h213q33 0 32 33v1130h238q33 0 33 33v205q0 33 -33 33h-754q-33 0 -33 -33v-205z" />
<glyph unicode="u" d="M102 295v1098q0 16 12.5 28.5t28.5 12.5h197q16 0 28.5 -12.5t12.5 -28.5v-1041q0 -82 82 -82h106q82 0 82 82v1041q0 16 12.5 28.5t28.5 12.5h189q16 0 28.5 -12.5t12.5 -28.5v-1098q0 -143 -76 -219t-219 -76h-230q-143 0 -219 76t-76 219z" />
<glyph unicode="v" horiz-adv-x="1071" d="M63 1389q-2 8 -2 14q0 31 39 31h187q37 0 45 -37l203 -926l204 926q10 37 45 37h187q39 0 39 -31q0 -7 -2 -14l-326 -1352q-10 -37 -45 -37h-205q-35 0 -45 37z" />
<glyph unicode="w" horiz-adv-x="1570" d="M102 1391q-1 5 -1 10q0 33 40 33h193q37 0 43 -39l100 -856h10l201 860q10 35 45 35h125q35 0 45 -35l201 -860h10l105 856q6 39 43 39h192q40 0 40 -33q0 -4 -1 -10l-197 -1354q-6 -37 -45 -37h-221q-35 0 -45 37l-188 840l-191 -840q-8 -37 -45 -37h-225q-39 0 -45 39z " />
<glyph unicode="x" horiz-adv-x="1167" d="M65 14.5q-8 14.5 3 34.5l346 684l-326 651q-10 20 -2 35t33 15h211q33 0 47 -29l196 -414l197 414q14 29 47 29h211q25 0 33 -14.5t-2 -35.5l-324 -651l344 -684q10 -20 2 -34.5t-32 -14.5h-211q-33 0 -47 29l-218 444l-217 -444q-14 -29 -47 -29h-211q-25 0 -33 14.5z " />
<glyph unicode="y" horiz-adv-x="1077" d="M25 1386q-8 20 1 34t31 14h205q35 0 47 -33l230 -527l229 527q12 33 47 33h205q23 0 32 -13.5t1 -34.5l-375 -849v-496q0 -41 -41 -41h-197q-41 0 -41 41v496z" />
<glyph unicode="z" horiz-adv-x="1040" d="M65 14.5q-8 14.5 3 34.5l522 1114h-422q-33 0 -33 33v203q0 31 33 35h776q25 0 33 -14.5t-2 -35.5l-522 -1132h448q33 0 33 -33v-184q0 -31 -33 -35h-803q-25 0 -33 14.5z" />
<glyph unicode="&#xa3;" horiz-adv-x="1128" d="M102 41v154q0 35 33 47l39 16q31 12 31 47v262h-62q-41 0 -41 41v189q0 41 41 41h62v505q0 143 75.5 219t221.5 76h229q143 0 219 -75.5t76 -219.5v-221q0 -32 -33 -32h-205q-33 0 -32 32v164q0 82 -82 82h-107q-82 0 -82 -82v-448h398q41 0 41 -41v-189q0 -41 -41 -41 h-398v-297h500q41 0 41 -41v-188q0 -41 -41 -41h-842q-41 0 -41 41z" />
<glyph unicode="&#xad;" horiz-adv-x="610" d="M102 643v188q0 41 41 41h324q41 0 41 -41v-188q0 -41 -41 -41h-324q-41 0 -41 41z" />
<glyph unicode="&#xb0;" horiz-adv-x="653" d="M61 1382q0 111 78 190t189 79q109 0 186.5 -79t77.5 -190q0 -109 -78 -186.5t-186 -77.5q-111 0 -189 78t-78 186zM233 1382q0 -37 28 -64.5t67 -27.5q37 0 64.5 28t27.5 64q0 39 -27.5 67t-64.5 28q-39 0 -67 -28t-28 -67z" />
<glyph unicode="&#xd7;" horiz-adv-x="1232" d="M117 438q-29 29 0 58l305 305l-305 305q-29 29 0 57l137 137q29 29 57 0l305 -305l306 305q28 29 57 0l137 -137q29 -29 0 -57l-305 -305l305 -305q29 -29 0 -58l-137 -137q-29 -29 -57 0l-306 305l-305 -305q-29 -29 -57 0z" />
<glyph unicode="&#xf7;" horiz-adv-x="1425" d="M102 705v192q0 41 41 41h1139q41 0 41 -41v-192q0 -41 -41 -41h-1139q-41 0 -41 41zM580 233v189q0 41 41 41h186q41 0 41 -41v-189q0 -41 -41 -40h-186q-41 -1 -41 40zM580 1184v188q0 41 41 41h186q41 0 41 -41v-188q0 -41 -41 -41h-186q-41 0 -41 41z" />
<glyph unicode="&#x2000;" horiz-adv-x="896" />
<glyph unicode="&#x2001;" horiz-adv-x="1792" />
<glyph unicode="&#x2002;" horiz-adv-x="896" />
<glyph unicode="&#x2003;" horiz-adv-x="1792" />
<glyph unicode="&#x2004;" horiz-adv-x="597" />
<glyph unicode="&#x2005;" horiz-adv-x="448" />
<glyph unicode="&#x2006;" horiz-adv-x="298" />
<glyph unicode="&#x2007;" horiz-adv-x="298" />
<glyph unicode="&#x2008;" horiz-adv-x="224" />
<glyph unicode="&#x2009;" horiz-adv-x="358" />
<glyph unicode="&#x200a;" horiz-adv-x="99" />
<glyph unicode="&#x2010;" horiz-adv-x="610" d="M102 643v188q0 41 41 41h324q41 0 41 -41v-188q0 -41 -41 -41h-324q-41 0 -41 41z" />
<glyph unicode="&#x2011;" horiz-adv-x="610" d="M102 643v188q0 41 41 41h324q41 0 41 -41v-188q0 -41 -41 -41h-324q-41 0 -41 41z" />
<glyph unicode="&#x2012;" horiz-adv-x="610" d="M102 643v188q0 41 41 41h324q41 0 41 -41v-188q0 -41 -41 -41h-324q-41 0 -41 41z" />
<glyph unicode="&#x2013;" horiz-adv-x="1079" d="M102 643v188q0 41 41 41h793q41 0 41 -41v-188q0 -41 -41 -41h-793q-41 0 -41 41z" />
<glyph unicode="&#x2014;" horiz-adv-x="1521" d="M102 643v188q0 41 41 41h1235q41 0 41 -41v-188q0 -41 -41 -41h-1235q-41 0 -41 41z" />
<glyph unicode="&#x2018;" horiz-adv-x="473" d="M102 1204v201q0 29 15 51l110 168q8 14 25 14h92q27 0 16 -24l-81 -180h51q41 0 41 -41v-189q0 -41 -41 -41h-187q-41 0 -41 41z" />
<glyph unicode="&#x2019;" horiz-adv-x="473" d="M102 1409v188q0 41 41 41h187q41 0 41 -41v-200q0 -29 -15 -51l-110 -168q-8 -14 -25 -15h-92q-27 0 -16 25l82 180h-52q-41 0 -41 41z" />
<glyph unicode="&#x201c;" horiz-adv-x="821" d="M102 1204v201q0 29 15 51l110 168q8 14 25 14h92q27 0 16 -24l-81 -180h51q41 0 41 -41v-189q0 -41 -41 -41h-187q-41 0 -41 41zM451 1204v201q0 29 14 51l110 168q8 14 25 14h92q27 0 17 -24l-82 -180h51q41 0 41 -41v-189q0 -41 -41 -41h-186q-41 0 -41 41z" />
<glyph unicode="&#x201d;" horiz-adv-x="837" d="M102 1409v188q0 41 41 41h187q41 0 41 -41v-200q0 -29 -15 -51l-110 -168q-8 -14 -25 -15h-92q-27 0 -16 25l82 180h-52q-41 0 -41 41zM467 1409v188q0 41 41 41h186q41 0 41 -41v-200q0 -29 -14 -51l-111 -168q-8 -14 -24 -15h-92q-27 0 -17 25l82 180h-51q-41 0 -41 41 z" />
<glyph unicode="&#x2026;" horiz-adv-x="1292" d="M102 41v188q0 41 41 41h187q41 0 41 -41v-188q0 -41 -41 -41h-187q-41 0 -41 41zM512 41v188q0 41 41 41h186q41 0 41 -41v-188q0 -41 -41 -41h-186q-41 0 -41 41zM922 41v188q0 41 41 41h186q41 0 41 -41v-188q0 -41 -41 -41h-186q-41 0 -41 41z" />
<glyph unicode="&#x202f;" horiz-adv-x="358" />
<glyph unicode="&#x205f;" horiz-adv-x="448" />
<glyph unicode="&#x20ac;" horiz-adv-x="1185" d="M102 555l25 150q6 37 43 36h94v156h-82q-45 0 -39 43l25 150q6 37 45 36h51v215q0 145 76 224.5t219 72.5l483 -18q41 -4 41 -43v-168q0 -41 -41 -41h-426q-82 0 -81 -84v-158h350q43 0 37 -43l-25 -149q-6 -37 -43 -37h-319v-156h268q43 0 37 -43l-25 -149 q-6 -37 -43 -37h-237v-160q0 -82 81 -82h426q41 0 41 -41v-168q0 -39 -41 -43l-483 -18q-143 -6 -219 72t-76 223v217h-123q-45 0 -39 43z" />
<glyph unicode="&#x25fc;" horiz-adv-x="1433" d="M0 0v1434h1434v-1434h-1434z" />
</font>
</defs>
</svg>
